<svg viewBox="0 0 41.15 41.14" xmlns="http://www.w3.org/2000/svg"><path d="m35.67 19.72a22.05 22.05 0 0 0 3-11.26c-.19-2.92-1.79-6-5.13-6-3.7 0-7.09 3.3-8.48 6.26-1.17 2.5-.41 6.67-4.46 6.8-4-.13-3.29-4.3-4.46-6.8-1.38-3-4.77-6.21-8.47-6.26-3.35 0-4.95 3-5.13 6a22.05 22.05 0 0 0 3 11.26c2.38 4-1.87 6.79-1.06 10.85.6 3 3.47 7.74 6.87 8.05s4.85-6.63 6.17-8.87a3.91 3.91 0 0 1 6.24 0c1.24 2.25 2.56 9.25 6.1 8.88s6.27-5.07 6.87-8.05c.81-4.07-3.44-6.82-1.06-10.86z" fill="none" stroke="#231f20" stroke-miterlimit="10" stroke-width="5"/></svg>