<svg xmlns="http://www.w3.org/2000/svg" viewBox="0 0 41.14 41.14"><defs><style>.a{fill:none;stroke:#000;stroke-linejoin:round;stroke-width:5px;fill-rule:evenodd;}</style></defs><title>car</title><path class="a" d="M26.11,2.52A16.7,16.7,0,0,1,33.9,4.86a2.44,2.44,0,0,1,1,1.9c.18,1.94.49,3.86.76,5.79.3,2.1.65,4.2,1,6.29.45,2.72.93,5.44,1.39,8.16.26,1.51.26,3,.56,4.55.06.29-.07.41-.35.41-.5,0-1,0-1.5,0s-.5.15-.52.53a7.34,7.34,0,0,1-1.43,4.16,4.55,4.55,0,0,1-7.57,0,7.39,7.39,0,0,1-1.43-4.16c0-.39-.15-.52-.54-.52-3,0-6,0-8.95,0-.59,0-.58.42-.6.76a7.14,7.14,0,0,1-1.55,4.12,4.49,4.49,0,0,1-6.31.9,6.46,6.46,0,0,1-2.47-4.9c-.07-.81-.09-.87-.92-.87-.48,0-1,0-1.44,0s-.53-.18-.54-.57a13.6,13.6,0,0,1,.31-2.54q.5-3.33,1-6.65c.2-1.31.39-2.63.63-3.94.17-.92.65-1.22,2-1.3,2-.13,4-.23,6-.38.56,0,1.11-.12,1.67-.11.38,0,.56-.17.63-.56a56.73,56.73,0,0,0,.74-7.23,7.49,7.49,0,0,1,.65-3.42,3.3,3.3,0,0,1,2.5-1.74c1.7-.29,3.4-.59,5.12-.81A10.56,10.56,0,0,1,26.11,2.52Z"/></svg>