<svg xmlns="http://www.w3.org/2000/svg" viewBox="0 0 41.14 41.14"><defs><style>.a{fill:none;stroke:#000;stroke-linecap:round;stroke-linejoin:round;stroke-width:5px;fill-rule:evenodd;}</style></defs><title>duck</title><path class="a" d="M22,38.63A23.17,23.17,0,0,1,10.39,36a14.45,14.45,0,0,1-7.29-9.09,16.68,16.68,0,0,1-.57-5.38A9.78,9.78,0,0,1,3.42,18,12.68,12.68,0,0,1,5,15.07a3.85,3.85,0,0,1,.58-.61,1,1,0,0,1,1.58.1c.68.7,1.32,1.44,2,2.13a6.85,6.85,0,0,0,4.83,2,15.26,15.26,0,0,0,4.9-.6c.46-.14.55-.35.41-.78A7.13,7.13,0,0,0,18,15.21a6.62,6.62,0,0,1-1.46-4.32,7.78,7.78,0,0,1,1.51-4.39A9.22,9.22,0,0,1,23.55,2.7a7.18,7.18,0,0,1,6.36,1.55,15.13,15.13,0,0,1,3,3.25A2.9,2.9,0,0,0,35.1,8.72c.71.08,1.43.1,2.14.13,1.16,0,1.64.72,1.29,1.85a6.81,6.81,0,0,1-2.66,3.57c-1,.72-2.09,1.31-3.13,2-.34.21-.45.33-.15.71,1.16,1.44,2.36,2.84,3.38,4.39a10.12,10.12,0,0,1,1.82,6.84,9.68,9.68,0,0,1-2.44,5.53c-2.49,2.76-5.75,4-9.29,4.57A21,21,0,0,1,22,38.63Z"/></svg>