<svg xmlns="http://www.w3.org/2000/svg" viewBox="0 0 41.98 40.5"><defs><style>.a{fill:none;stroke:#000;stroke-linejoin:round;stroke-width:5px;fill-rule:evenodd;}</style></defs><title>flower</title><path class="a" d="M13.95,29a17.48,17.48,0,0,1-2.2,1.14,6.86,6.86,0,0,1-4.84.08,7.21,7.21,0,0,1-4.07-8.88,5.85,5.85,0,0,1,3.69-4c1-.35,2-.66,3.1-.94A18.58,18.58,0,0,1,7.5,14.12,6.22,6.22,0,0,1,6.18,9.6a7.08,7.08,0,0,1,3.09-5,7.17,7.17,0,0,1,6.15-1.29A7.61,7.61,0,0,1,20.09,7.1L20.6,8c.42-.78.77-1.5,1.2-2.18A7,7,0,0,1,30,2.91a7.43,7.43,0,0,1,4.57,4.4,5.79,5.79,0,0,1-.86,5.75c-.55.76-1.21,1.42-1.84,2.23.52.07,1,.11,1.47.19a7.91,7.91,0,0,1,4,1.81,6.06,6.06,0,0,1,2,5.63,7.53,7.53,0,0,1-3.08,5.38,7.18,7.18,0,0,1-6.39.89,11.59,11.59,0,0,1-2.14-.79,14.16,14.16,0,0,1,.24,3,6.66,6.66,0,0,1-4.25,6,8.54,8.54,0,0,1-5.38.31,6.09,6.09,0,0,1-4-3.25,7.4,7.4,0,0,1-.61-3.7C13.87,30.18,13.91,29.61,13.95,29Z"/></svg>