<svg xmlns="http://www.w3.org/2000/svg" viewBox="0 0 41.14 41.14"><defs><style>.a{fill:none;stroke:#000;stroke-linejoin:round;stroke-width:5px;}</style></defs><title>house</title><path class="a" d="M38.64,16.55a.83.83,0,0,0-.4-.85,9.06,9.06,0,0,1-.89-.7L28.81,8.55l-7.91-6a1,1,0,0,0-.66,0l-7.91,6L3.79,15a9,9,0,0,1-.89.7.83.83,0,0,0-.4.85q0,4.67,0,9.35c0,4,0,8,0,11.93,0,.65.16.81.83.8,3.53,0,7,0,10.56,0,.62,0,.78-.18.77-.78,0-2.92,0-8,0-11,0-.53.19-.7.74-.68l5.14,0h.09l5.14,0c.55,0,.74.15.74.68,0,2.92,0,8,0,11,0,.6.15.79.77.78,3.53,0,7,0,10.56,0,.67,0,.83-.15.83-.8,0-4,0-8,0-11.93Q38.64,21.23,38.64,16.55Z"/></svg>