<svg xmlns="http://www.w3.org/2000/svg" viewBox="0 0 41.14 41"><defs><style>.a{fill:none;stroke:#000;stroke-miterlimit:10;stroke-width:5px;}</style></defs><title>moon</title><path class="a" d="M27.81,25.33A6.72,6.72,0,0,1,25,22.1a5.21,5.21,0,0,1,0-3.2,6.72,6.72,0,0,1,2.79-3.23c1.83-1.33,9.31-4.86,10.43-6.09.52-.57.56-.95,0-1.42-.24-.21-.85-.83-1.1-1A22.63,22.63,0,0,0,23.41,2.5,21.1,21.1,0,0,0,18.76,3,20.78,20.78,0,0,0,5.9,10.7a16.15,16.15,0,0,0-3.37,8.93c0,.27,0,.79,0,.79h0s0,0,0,.07,0,0,0,.07h0s0,.53,0,.79A16.15,16.15,0,0,0,5.9,30.3,20.78,20.78,0,0,0,18.76,38a21.06,21.06,0,0,0,4.65.45,22.64,22.64,0,0,0,13.71-4.63c.25-.19.86-.81,1.1-1,.58-.48.54-.85,0-1.42C37.13,30.19,29.65,26.66,27.81,25.33Z"/></svg>