<svg xmlns="http://www.w3.org/2000/svg" viewBox="0 0 41.14 41.14"><defs><style>.a{fill:none;stroke:#000;stroke-miterlimit:10;stroke-width:5px;}</style></defs><title>rabbit</title><path class="a" d="M36,23c-1.59-1.56-4.59-1.86-3.46-4.61a31.35,31.35,0,0,0,2.21-9.21A7.22,7.22,0,0,0,33,3.76c-1.13-1-1.62-1.59-3.3-1.05-3.33,1.05-4.27,3.57-4.87,6.42-.36,1.7-.42,4.33-1.24,5.57a3.92,3.92,0,0,1-3,1.78,3.92,3.92,0,0,1-3-1.78c-.82-1.25-.88-3.87-1.24-5.57-.6-2.85-1.54-5.37-4.87-6.42-1.68-.53-2.17,0-3.3,1.05A7.22,7.22,0,0,0,6.42,9.21a31.38,31.38,0,0,0,2.21,9.21C9.76,21.17,6.75,21.47,5.17,23c-6.53,6.41.22,12.24,6.46,14.13a45.41,45.41,0,0,0,8.94,1.49,45,45,0,0,0,8.95-1.49C35.76,35.27,42.51,29.44,36,23Z"/></svg>