<svg xmlns="http://www.w3.org/2000/svg" viewBox="0 0 41.14 41.14"><defs><style>.a{fill:none;stroke:#231f20;stroke-miterlimit:10;stroke-width:5px;}</style></defs><title>rocket</title><path class="a" d="M37,28.37c-.77-.6-1.86-1.43-2.9-2.08-1.21-.89-.75-2-.63-3.21.28-2.17.28-1.81.46-3.52.35-3.32-1.31-7.2-3.66-9.89A38,38,0,0,0,24.9,4.84C23,3.35,21.78,2.57,20.61,2.5h-.07c-1.17.07-2.4.84-4.29,2.34a38,38,0,0,0-5.36,4.82c-2.35,2.69-4,6.58-3.66,9.89.18,1.71.18,1.36.46,3.52.12,1.21.58,2.32-.63,3.21-1,.65-2.13,1.49-2.9,2.08C2.59,29.43,2,30.26,3,31.92a28.46,28.46,0,0,0,4.34,5.74c1.32,1.19,2,1.5,3.95-.22,1-.9,1.65-1.64,3.06-3,2.41-2.34,2.95-2.28,4-2.34h4.48c1,.06,1.56,0,4,2.34,1.41,1.37,2,2.1,3.06,3,2,1.72,2.63,1.42,3.95.22a28.45,28.45,0,0,0,4.34-5.74C39.16,30.26,38.55,29.43,37,28.37Z"/></svg>