<svg xmlns="http://www.w3.org/2000/svg" viewBox="0 0 41.14 41.14"><defs><style>.a{fill:none;stroke:#000;stroke-miterlimit:10;stroke-width:5px;fill-rule:evenodd;}</style></defs><title>tree</title><path class="a" d="M22.86,38.64c-2-.05.33,0,0,0a26.84,26.84,0,0,1-6-.8c-.64-.16-.79-.48-.61-1.08a10.63,10.63,0,0,0,.43-3.35A41.79,41.79,0,0,0,16.63,29c-.92-5-3.71-2.65-5.9-1.7-4,1.74-5.82.15-7-2-1.1-2-1.87-3.86-.33-6.66a8.53,8.53,0,0,1,3-3.08C6.7,15.15,4.59,14,6,10.2c.8-2.11,1.88-3,4.37-3.75.64-.19,2.11-.32,2.78-.44a4.84,4.84,0,0,0,2.69-2.08C18.62.47,25.6,4,27.35,6.75A3.34,3.34,0,0,0,31.17,8.2a4.24,4.24,0,0,1,2.75.64,4.8,4.8,0,0,1,1.67,1.27A5,5,0,0,1,37.2,13.4a4.45,4.45,0,0,1-.38,2.93c-.11.26-.61.92-.49,1.22s.87.66,1.15.92c2.81,2.65,0,9.1-3.45,9.1-2.67,0-9.75-5.77-8.32.85.46,2.14,1.77,4.95,2.42,7.18C28.85,38,24.11,38.64,22.86,38.64Z"/></svg>